<svg xmlns="http://www.w3.org/2000/svg" xmlns:xlink="http://www.w3.org/1999/xlink" contentStyleType="text/css" height="1822px" preserveAspectRatio="none" style="width:1069px;height:1822px;background:#FFFFFF;" version="1.1" viewBox="0 0 1069 1822" width="1069px" zoomAndPan="magnify"><title>Main User Flow</title><defs/><g><text fill="#000000" font-family="Verdana" font-size="22" font-weight="bold" lengthAdjust="spacing" textLength="188.7188" x="438.7666" y="37.1182">Main User Flow</text><ellipse cx="516.126" cy="62.7373" fill="#FFFFFF" rx="10" ry="10" style="stroke:#000000;stroke-width:1.0;"/><rect fill="#FFFFFF" height="34.584" rx="12.5" ry="12.5" style="stroke:#000000;stroke-width:1.0;" width="257.9199" x="387.166" y="92.7373"/><text fill="#000000" font-family="Verdana" font-size="12" lengthAdjust="spacing" textLength="237.9199" x="397.166" y="114.8018">Open https://contacts.cop4331ruth.lol/</text><rect fill="#FFFFFF" height="34.584" rx="12.5" ry="12.5" style="stroke:#000000;stroke-width:1.0;" width="119.9961" x="456.1279" y="147.3213"/><text fill="#000000" font-family="Verdana" font-size="12" lengthAdjust="spacing" textLength="99.9961" x="466.1279" y="169.3857">index.html loads</text><polygon fill="#FFFFFF" points="427.9031,201.9053,604.3489,201.9053,616.3489,213.9053,604.3489,225.9053,427.9031,225.9053,415.9031,213.9053,427.9031,201.9053" style="stroke:#000000;stroke-width:1.0;"/><text fill="#000000" font-family="Verdana" font-size="11" lengthAdjust="spacing" textLength="176.4458" x="427.9031" y="218.28">readSession() returns a userId?</text><text fill="#000000" font-family="Verdana" font-size="11" lengthAdjust="spacing" textLength="18.7935" x="397.1096" y="211.5957">yes</text><text fill="#000000" font-family="Verdana" font-size="11" lengthAdjust="spacing" textLength="13.6372" x="616.3489" y="211.5957">no</text><rect fill="#FFFFFF" height="34.584" rx="12.5" ry="12.5" style="stroke:#000000;stroke-width:1.0;" width="171.9102" x="266.2192" y="235.9053"/><text fill="#000000" font-family="Verdana" font-size="12" lengthAdjust="spacing" textLength="151.9102" x="276.2192" y="257.9697">Redirect to contacts.html</text><polygon fill="#FFFFFF" points="612.4663,290.4893,747.689,290.4893,759.689,302.4893,747.689,314.4893,612.4663,314.4893,600.4663,302.4893,612.4663,290.4893" style="stroke:#000000;stroke-width:1.0;"/><text fill="#000000" font-family="Verdana" font-size="11" lengthAdjust="spacing" textLength="135.2227" x="612.4663" y="306.864">Already has an account?</text><text fill="#000000" font-family="Verdana" font-size="11" lengthAdjust="spacing" textLength="18.7935" x="581.6729" y="300.1797">yes</text><text fill="#000000" font-family="Verdana" font-size="11" lengthAdjust="spacing" textLength="13.6372" x="759.689" y="300.1797">no</text><rect fill="#FFFFFF" height="34.584" rx="12.5" ry="12.5" style="stroke:#000000;stroke-width:1.0;" width="141.2422" x="481.9487" y="324.4893"/><text fill="#000000" font-family="Verdana" font-size="12" lengthAdjust="spacing" textLength="121.2422" x="491.9487" y="346.5537">Fill in the login form</text><rect fill="#FFFFFF" height="49.168" rx="12.5" ry="12.5" style="stroke:#000000;stroke-width:1.0;" width="168.8809" x="468.1294" y="381.2813"/><text fill="#000000" font-family="Verdana" font-size="12" lengthAdjust="spacing" textLength="95.7363" x="478.1294" y="403.3457">POST Login.php</text><text fill="#000000" font-family="Verdana" font-size="12" lengthAdjust="spacing" textLength="148.8809" x="478.1294" y="417.9297">{ username, password }</text><rect fill="#FFFFFF" height="34.584" rx="12.5" ry="12.5" style="stroke:#000000;stroke-width:1.0;" width="158.5918" x="728.2896" y="324.4893"/><text fill="#000000" font-family="Verdana" font-size="12" lengthAdjust="spacing" textLength="138.5918" x="738.2896" y="346.5537">Fill in the register form</text><rect fill="#FFFFFF" height="49.168" rx="12.5" ry="12.5" style="stroke:#000000;stroke-width:1.0;" width="301.1504" x="657.0103" y="381.2813"/><text fill="#000000" font-family="Verdana" font-size="12" lengthAdjust="spacing" textLength="112.9219" x="667.0103" y="403.3457">POST Register.php</text><text fill="#000000" font-family="Verdana" font-size="12" lengthAdjust="spacing" textLength="281.1504" x="667.0103" y="417.9297">{ firstName, lastName, username, password }</text><polygon fill="#FFFFFF" points="680.0776,436.4492,692.0776,448.4492,680.0776,460.4492,668.0776,448.4492,680.0776,436.4492" style="stroke:#000000;stroke-width:1.0;"/><polygon fill="#FFFFFF" points="680.0776,235.9053,692.0776,247.9053,680.0776,259.9053,668.0776,247.9053,680.0776,235.9053" style="stroke:#000000;stroke-width:1.0;"/><polygon fill="#FFFFFF" points="612.3347,480.4492,747.8206,480.4492,759.8206,492.4492,747.8206,504.4492,612.3347,504.4492,600.3347,492.4492,612.3347,480.4492" style="stroke:#000000;stroke-width:1.0;"/><text fill="#000000" font-family="Verdana" font-size="11" lengthAdjust="spacing" textLength="13.6372" x="684.0776" y="515.5083">no</text><text fill="#000000" font-family="Verdana" font-size="11" lengthAdjust="spacing" textLength="135.4858" x="612.3347" y="496.824">response.error is not ""?</text><text fill="#000000" font-family="Verdana" font-size="11" lengthAdjust="spacing" textLength="130.335" x="759.8206" y="490.1396">yes: show the message</text><rect fill="#FFFFFF" height="49.168" rx="12.5" ry="12.5" style="stroke:#000000;stroke-width:1.0;" width="275.5449" x="542.3052" y="537.0083"/><text fill="#000000" font-family="Verdana" font-size="12" lengthAdjust="spacing" textLength="255.5449" x="552.3052" y="559.0728">saveSession(userId, firstName, lastName)</text><text fill="#000000" font-family="Verdana" font-size="12" lengthAdjust="spacing" textLength="125.6016" x="552.3052" y="573.6567">(cookie, 30 minutes)</text><rect fill="#FFFFFF" height="34.584" rx="12.5" ry="12.5" style="stroke:#000000;stroke-width:1.0;" width="171.9102" x="594.1226" y="606.1763"/><text fill="#000000" font-family="Verdana" font-size="12" lengthAdjust="spacing" textLength="151.9102" x="604.1226" y="628.2407">Redirect to contacts.html</text><polygon fill="#FFFFFF" points="516.126,646.7603,528.126,658.7603,516.126,670.7603,504.126,658.7603,516.126,646.7603" style="stroke:#000000;stroke-width:1.0;"/><rect fill="#FFFFFF" height="34.584" rx="12.5" ry="12.5" style="stroke:#000000;stroke-width:1.0;" width="154.2266" x="439.0127" y="739.4446"/><text fill="#000000" font-family="Verdana" font-size="12" lengthAdjust="spacing" textLength="134.2266" x="449.0127" y="761.509">Redirect to index.html</text><ellipse cx="516.126" cy="813.2366" fill="none" rx="11" ry="11" style="stroke:#000000;stroke-width:1.0;"/><ellipse cx="516.126" cy="813.2366" fill="#FFFFFF" rx="6" ry="6" style="stroke:#000000;stroke-width:1.0;"/><polygon fill="#FFFFFF" points="406.4966,690.7603,625.7554,690.7603,637.7554,702.7603,625.7554,714.7603,406.4966,714.7603,394.4966,702.7603,406.4966,690.7603" style="stroke:#000000;stroke-width:1.0;"/><text fill="#000000" font-family="Verdana" font-size="11" lengthAdjust="spacing" textLength="122.6489" x="520.126" y="725.8193">no: expired or cleared</text><text fill="#000000" font-family="Verdana" font-size="11" lengthAdjust="spacing" textLength="219.2588" x="406.4966" y="707.135">requireLogin(): is the cookie still there?</text><text fill="#000000" font-family="Verdana" font-size="11" lengthAdjust="spacing" textLength="18.7935" x="637.7554" y="700.4507">yes</text><rect fill="#FFFFFF" height="49.168" rx="12.5" ry="12.5" style="stroke:#000000;stroke-width:1.0;" width="346.4023" x="342.9248" y="866.2366"/><text fill="#000000" font-family="Verdana" font-size="12" lengthAdjust="spacing" textLength="260.0801" x="352.9248" y="888.301">POST SearchContacts.php with search = ""</text><text fill="#000000" font-family="Verdana" font-size="12" lengthAdjust="spacing" textLength="326.4023" x="352.9248" y="902.885">(an empty term returns every contact this user owns)</text><rect fill="#FFFFFF" height="34.584" rx="12.5" ry="12.5" style="stroke:#000000;stroke-width:1.0;" width="163.3203" x="434.4658" y="935.4045"/><text fill="#000000" font-family="Verdana" font-size="12" lengthAdjust="spacing" textLength="143.3203" x="444.4658" y="957.469">renderContacts(results)</text><polygon fill="#FFFFFF" points="450.4375,1033.9885,581.8145,1033.9885,593.8145,1045.9885,581.8145,1057.9885,450.4375,1057.9885,438.4375,1045.9885,450.4375,1033.9885" style="stroke:#000000;stroke-width:1.0;"/><text fill="#000000" font-family="Verdana" font-size="11" lengthAdjust="spacing" textLength="131.377" x="450.4375" y="1050.3633">What does the user do?</text><rect fill="#FFFFFF" height="49.168" rx="12.5" ry="12.5" style="stroke:#000000;stroke-width:1.0;" width="189.6816" x="6" y="1094.7258"/><text fill="#000000" font-family="Verdana" font-size="12" lengthAdjust="spacing" textLength="147.2168" x="16" y="1116.7903">Type a term, pick a field</text><text fill="#000000" font-family="Verdana" font-size="12" lengthAdjust="spacing" textLength="169.6816" x="16" y="1131.3743">(all / name / phone / email)</text><rect fill="#FFFFFF" height="34.584" rx="12.5" ry="12.5" style="stroke:#000000;stroke-width:1.0;" width="169.4316" x="16.125" y="1178.4778"/><text fill="#000000" font-family="Verdana" font-size="12" lengthAdjust="spacing" textLength="149.4316" x="26.125" y="1200.5422">Wait 250 ms (debounce)</text><rect fill="#FFFFFF" height="49.168" rx="12.5" ry="12.5" style="stroke:#000000;stroke-width:1.0;" width="177.3594" x="12.1611" y="1233.0618"/><text fill="#000000" font-family="Verdana" font-size="12" lengthAdjust="spacing" textLength="157.3594" x="22.1611" y="1255.1262">POST SearchContacts.php</text><text fill="#000000" font-family="Verdana" font-size="12" lengthAdjust="spacing" textLength="144.4863" x="22.1611" y="1269.7102">{ userId, search, field }</text><rect fill="#FFFFFF" height="34.584" rx="12.5" ry="12.5" style="stroke:#000000;stroke-width:1.0;" width="186.3594" x="263.2324" y="1094.7258"/><text fill="#000000" font-family="Verdana" font-size="12" lengthAdjust="spacing" textLength="166.3594" x="273.2324" y="1116.7903">Fill in the new-contact form</text><rect fill="#FFFFFF" height="49.168" rx="12.5" ry="12.5" style="stroke:#000000;stroke-width:1.0;" width="301.4609" x="205.6816" y="1163.8938"/><text fill="#000000" font-family="Verdana" font-size="12" lengthAdjust="spacing" textLength="132.7383" x="215.6816" y="1185.9583">POST AddContact.php</text><text fill="#000000" font-family="Verdana" font-size="12" lengthAdjust="spacing" textLength="281.4609" x="215.6816" y="1200.5422">{ userId, firstName, lastName, phone, email }</text><rect fill="#FFFFFF" height="34.584" rx="12.5" ry="12.5" style="stroke:#000000;stroke-width:1.0;" width="204.8105" x="585.1445" y="1094.7258"/><text fill="#000000" font-family="Verdana" font-size="12" lengthAdjust="spacing" textLength="184.8105" x="595.1445" y="1116.7903">Open a card, change the fields</text><rect fill="#FFFFFF" height="49.168" rx="12.5" ry="12.5" style="stroke:#000000;stroke-width:1.0;" width="320.8145" x="527.1426" y="1163.8938"/><text fill="#000000" font-family="Verdana" font-size="12" lengthAdjust="spacing" textLength="132.668" x="537.1426" y="1185.9583">POST EditContact.php</text><text fill="#000000" font-family="Verdana" font-size="12" lengthAdjust="spacing" textLength="300.8145" x="537.1426" y="1200.5422">{ userId, id, firstName, lastName, phone, email }</text><rect fill="#FFFFFF" height="34.584" rx="12.5" ry="12.5" style="stroke:#000000;stroke-width:1.0;" width="146.6035" x="878.8027" y="1094.7258"/><text fill="#000000" font-family="Verdana" font-size="12" lengthAdjust="spacing" textLength="126.6035" x="888.8027" y="1116.7903">Confirm in the dialog</text><rect fill="#FFFFFF" height="49.168" rx="12.5" ry="12.5" style="stroke:#000000;stroke-width:1.0;" width="168.2949" x="867.957" y="1163.8938"/><text fill="#000000" font-family="Verdana" font-size="12" lengthAdjust="spacing" textLength="148.2949" x="877.957" y="1185.9583">POST DeleteContact.php</text><text fill="#000000" font-family="Verdana" font-size="12" lengthAdjust="spacing" textLength="81.668" x="877.957" y="1200.5422">{ userId, id }</text><polygon fill="#FFFFFF" points="516.126,1312.2297,516.126,1312.2297,528.126,1324.2297,516.126,1336.2297,516.126,1336.2297,504.126,1324.2297,516.126,1312.2297" style="stroke:#000000;stroke-width:1.0;"/><polygon fill="#FFFFFF" points="459.3025,1356.2297,572.9495,1356.2297,584.9495,1368.2297,572.9495,1380.2297,459.3025,1380.2297,447.3025,1368.2297,459.3025,1356.2297" style="stroke:#000000;stroke-width:1.0;"/><text fill="#000000" font-family="Verdana" font-size="11" lengthAdjust="spacing" textLength="113.647" x="459.3025" y="1372.6045">response.error is ""?</text><text fill="#000000" font-family="Verdana" font-size="11" lengthAdjust="spacing" textLength="13.6372" x="433.6653" y="1365.9202">no</text><text fill="#000000" font-family="Verdana" font-size="11" lengthAdjust="spacing" textLength="18.7935" x="584.9495" y="1365.9202">yes</text><rect fill="#FFFFFF" height="34.584" rx="12.5" ry="12.5" style="stroke:#000000;stroke-width:1.0;" width="238.5137" x="222.0542" y="1390.2297"/><text fill="#000000" font-family="Verdana" font-size="12" lengthAdjust="spacing" textLength="218.5137" x="232.0542" y="1412.2942">Show the message the API returned</text><polygon fill="#FFFFFF" points="634.3564,1390.2297,747.5254,1390.2297,759.5254,1402.2297,747.5254,1414.2297,634.3564,1414.2297,622.3564,1402.2297,634.3564,1390.2297" style="stroke:#000000;stroke-width:1.0;"/><text fill="#000000" font-family="Verdana" font-size="11" lengthAdjust="spacing" textLength="113.1689" x="634.3564" y="1406.6045">Which action was it?</text><text fill="#000000" font-family="Verdana" font-size="11" lengthAdjust="spacing" textLength="36.2764" x="586.0801" y="1399.9202">search</text><text fill="#000000" font-family="Verdana" font-size="11" lengthAdjust="spacing" textLength="100.3965" x="759.5254" y="1399.9202">add / edit / delete</text><rect fill="#FFFFFF" height="34.584" rx="12.5" ry="12.5" style="stroke:#000000;stroke-width:1.0;" width="163.3203" x="490.5679" y="1424.2297"/><text fill="#000000" font-family="Verdana" font-size="12" lengthAdjust="spacing" textLength="143.3203" x="500.5679" y="1446.2942">renderContacts(results)</text><rect fill="#FFFFFF" height="34.584" rx="12.5" ry="12.5" style="stroke:#000000;stroke-width:1.0;" width="271.5313" x="673.8882" y="1424.2297"/><text fill="#000000" font-family="Verdana" font-size="12" lengthAdjust="spacing" textLength="251.5313" x="683.8882" y="1446.2942">Re-run the search, then renderContacts()</text><polygon fill="#FFFFFF" points="690.9409,1464.8137,702.9409,1476.8137,690.9409,1488.8137,678.9409,1476.8137,690.9409,1464.8137" style="stroke:#000000;stroke-width:1.0;"/><polygon fill="#FFFFFF" points="516.126,1494.8137,528.126,1506.8137,516.126,1518.8137,504.126,1506.8137,516.126,1494.8137" style="stroke:#000000;stroke-width:1.0;"/><polygon fill="#FFFFFF" points="516.126,989.9885,528.126,1001.9885,516.126,1013.9885,504.126,1001.9885,516.126,989.9885" style="stroke:#000000;stroke-width:1.0;"/><polygon fill="#FFFFFF" points="475.5447,1538.8137,556.7073,1538.8137,568.7073,1550.8137,556.7073,1562.8137,475.5447,1562.8137,463.5447,1550.8137,475.5447,1538.8137" style="stroke:#000000;stroke-width:1.0;"/><text fill="#000000" font-family="Verdana" font-size="11" lengthAdjust="spacing" textLength="38.3872" x="520.126" y="1573.8728">log out</text><text fill="#000000" font-family="Verdana" font-size="11" lengthAdjust="spacing" textLength="81.1626" x="475.5447" y="1555.1885">Keep working?</text><text fill="#000000" font-family="Verdana" font-size="11" lengthAdjust="spacing" textLength="18.7935" x="568.7073" y="1548.5042">yes</text><rect fill="#FFFFFF" height="34.584" rx="12.5" ry="12.5" style="stroke:#000000;stroke-width:1.0;" width="105.9453" x="463.1533" y="1595.3728"/><text fill="#000000" font-family="Verdana" font-size="12" lengthAdjust="spacing" textLength="85.9453" x="473.1533" y="1617.4373">clearSession()</text><rect fill="#FFFFFF" height="34.584" rx="12.5" ry="12.5" style="stroke:#000000;stroke-width:1.0;" width="154.2266" x="439.0127" y="1649.9568"/><text fill="#000000" font-family="Verdana" font-size="12" lengthAdjust="spacing" textLength="134.2266" x="449.0127" y="1672.0212">Redirect to index.html</text><path d="M547.126,1694.5408 L547.126,1750.8384 L527.126,1754.8384 L547.126,1758.8384 L547.126,1815.136 A0,0 0 0 0 547.126,1815.136 L910.4487,1815.136 A0,0 0 0 0 910.4487,1815.136 L910.4487,1704.5408 L900.4487,1694.5408 L547.126,1694.5408 A0,0 0 0 0 547.126,1694.5408 " fill="#FFFFFF" style="stroke:#000000;stroke-width:1.0;"/><path d="M900.4487,1694.5408 L900.4487,1704.5408 L910.4487,1704.5408 L900.4487,1694.5408 " fill="#FFFFFF" style="stroke:#000000;stroke-width:1.0;"/><text fill="#000000" font-family="Verdana" font-size="13" lengthAdjust="spacing" textLength="326.9043" x="553.126" y="1712.6106">Every request goes through callApiWithDeadline()</text><text fill="#000000" font-family="Verdana" font-size="13" lengthAdjust="spacing" textLength="311.2383" x="553.126" y="1728.4099">in frontend/js/api.js, which wraps callApi() with</text><text fill="#000000" font-family="Verdana" font-size="13" lengthAdjust="spacing" textLength="143.1396" x="553.126" y="1744.2092">a 15 second deadline.</text><text fill="#000000" font-family="Verdana" font-size="13" lengthAdjust="spacing" textLength="4.5703" x="553.126" y="1760.0085">&#160;</text><text fill="#000000" font-family="Verdana" font-size="13" lengthAdjust="spacing" textLength="342.3228" x="553.126" y="1775.8079">The API always returns HTTP 200. Errors come back</text><text fill="#000000" font-family="Verdana" font-size="13" lengthAdjust="spacing" textLength="303.1196" x="553.126" y="1791.6072">in the error field, so the front end checks it on</text><text fill="#000000" font-family="Verdana" font-size="13" lengthAdjust="spacing" textLength="104.5205" x="553.126" y="1807.4065">every response.</text><ellipse cx="516.126" cy="1754.8384" fill="none" rx="11" ry="11" style="stroke:#000000;stroke-width:1.0;"/><ellipse cx="516.126" cy="1754.8384" fill="#FFFFFF" rx="6" ry="6" style="stroke:#000000;stroke-width:1.0;"/><line style="stroke:#000000;stroke-width:1.0;" x1="516.126" x2="516.126" y1="72.7373" y2="92.7373"/><polygon fill="#000000" points="512.126,82.7373,516.126,92.7373,520.126,82.7373,516.126,86.7373" style="stroke:#000000;stroke-width:1.0;"/><line style="stroke:#000000;stroke-width:1.0;" x1="516.126" x2="516.126" y1="127.3213" y2="147.3213"/><polygon fill="#000000" points="512.126,137.3213,516.126,147.3213,520.126,137.3213,516.126,141.3213" style="stroke:#000000;stroke-width:1.0;"/><line style="stroke:#000000;stroke-width:1.0;" x1="552.5698" x2="552.5698" y1="359.0732" y2="381.2813"/><polygon fill="#000000" points="548.5698,371.2813,552.5698,381.2813,556.5698,371.2813,552.5698,375.2813" style="stroke:#000000;stroke-width:1.0;"/><line style="stroke:#000000;stroke-width:1.0;" x1="807.5854" x2="807.5854" y1="359.0732" y2="381.2813"/><polygon fill="#000000" points="803.5854,371.2813,807.5854,381.2813,811.5854,371.2813,807.5854,375.2813" style="stroke:#000000;stroke-width:1.0;"/><line style="stroke:#000000;stroke-width:1.0;" x1="600.4663" x2="552.5698" y1="302.4893" y2="302.4893"/><line style="stroke:#000000;stroke-width:1.0;" x1="552.5698" x2="552.5698" y1="302.4893" y2="324.4893"/><polygon fill="#000000" points="548.5698,314.4893,552.5698,324.4893,556.5698,314.4893,552.5698,318.4893" style="stroke:#000000;stroke-width:1.0;"/><line style="stroke:#000000;stroke-width:1.0;" x1="759.689" x2="807.5854" y1="302.4893" y2="302.4893"/><line style="stroke:#000000;stroke-width:1.0;" x1="807.5854" x2="807.5854" y1="302.4893" y2="324.4893"/><polygon fill="#000000" points="803.5854,314.4893,807.5854,324.4893,811.5854,314.4893,807.5854,318.4893" style="stroke:#000000;stroke-width:1.0;"/><line style="stroke:#000000;stroke-width:1.0;" x1="552.5698" x2="552.5698" y1="430.4492" y2="448.4492"/><line style="stroke:#000000;stroke-width:1.0;" x1="552.5698" x2="668.0776" y1="448.4492" y2="448.4492"/><polygon fill="#000000" points="658.0776,444.4492,668.0776,448.4492,658.0776,452.4492,662.0776,448.4492" style="stroke:#000000;stroke-width:1.0;"/><line style="stroke:#000000;stroke-width:1.0;" x1="807.5854" x2="807.5854" y1="430.4492" y2="448.4492"/><line style="stroke:#000000;stroke-width:1.0;" x1="807.5854" x2="692.0776" y1="448.4492" y2="448.4492"/><polygon fill="#000000" points="702.0776,444.4492,692.0776,448.4492,702.0776,452.4492,698.0776,448.4492" style="stroke:#000000;stroke-width:1.0;"/><line style="stroke:#000000;stroke-width:1.0;" x1="680.0776" x2="680.0776" y1="259.9053" y2="290.4893"/><polygon fill="#000000" points="676.0776,280.4893,680.0776,290.4893,684.0776,280.4893,680.0776,284.4893" style="stroke:#000000;stroke-width:1.0;"/><line style="stroke:#000000;stroke-width:1.0;" x1="759.8206" x2="980.1606" y1="492.4492" y2="492.4492"/><polygon fill="#000000" points="976.1606,379.0732,980.1606,369.0732,984.1606,379.0732,980.1606,375.0732" style="stroke:#000000;stroke-width:1.0;"/><line style="stroke:#000000;stroke-width:1.0;" x1="980.1606" x2="980.1606" y1="247.9053" y2="492.4492"/><line style="stroke:#000000;stroke-width:1.0;" x1="980.1606" x2="692.0776" y1="247.9053" y2="247.9053"/><polygon fill="#000000" points="702.0776,243.9053,692.0776,247.9053,702.0776,251.9053,698.0776,247.9053" style="stroke:#000000;stroke-width:1.0;"/><line style="stroke:#000000;stroke-width:1.0;" x1="680.0776" x2="680.0776" y1="460.4492" y2="480.4492"/><polygon fill="#000000" points="676.0776,470.4492,680.0776,480.4492,684.0776,470.4492,680.0776,474.4492" style="stroke:#000000;stroke-width:1.0;"/><line style="stroke:#000000;stroke-width:1.0;" x1="680.0776" x2="680.0776" y1="504.4492" y2="537.0083"/><polygon fill="#000000" points="676.0776,527.0083,680.0776,537.0083,684.0776,527.0083,680.0776,531.0083" style="stroke:#000000;stroke-width:1.0;"/><line style="stroke:#000000;stroke-width:1.0;" x1="680.0776" x2="680.0776" y1="586.1763" y2="606.1763"/><polygon fill="#000000" points="676.0776,596.1763,680.0776,606.1763,684.0776,596.1763,680.0776,600.1763" style="stroke:#000000;stroke-width:1.0;"/><line style="stroke:#000000;stroke-width:1.0;" x1="415.9031" x2="352.1743" y1="213.9053" y2="213.9053"/><line style="stroke:#000000;stroke-width:1.0;" x1="352.1743" x2="352.1743" y1="213.9053" y2="235.9053"/><polygon fill="#000000" points="348.1743,225.9053,352.1743,235.9053,356.1743,225.9053,352.1743,229.9053" style="stroke:#000000;stroke-width:1.0;"/><line style="stroke:#000000;stroke-width:1.0;" x1="616.3489" x2="680.0776" y1="213.9053" y2="213.9053"/><line style="stroke:#000000;stroke-width:1.0;" x1="680.0776" x2="680.0776" y1="213.9053" y2="235.9053"/><polygon fill="#000000" points="676.0776,225.9053,680.0776,235.9053,684.0776,225.9053,680.0776,229.9053" style="stroke:#000000;stroke-width:1.0;"/><line style="stroke:#000000;stroke-width:1.0;" x1="352.1743" x2="352.1743" y1="270.4893" y2="658.7603"/><line style="stroke:#000000;stroke-width:1.0;" x1="352.1743" x2="504.126" y1="658.7603" y2="658.7603"/><polygon fill="#000000" points="494.126,654.7603,504.126,658.7603,494.126,662.7603,498.126,658.7603" style="stroke:#000000;stroke-width:1.0;"/><line style="stroke:#000000;stroke-width:1.0;" x1="680.0776" x2="680.0776" y1="640.7603" y2="658.7603"/><line style="stroke:#000000;stroke-width:1.0;" x1="680.0776" x2="528.126" y1="658.7603" y2="658.7603"/><polygon fill="#000000" points="538.126,654.7603,528.126,658.7603,538.126,662.7603,534.126,658.7603" style="stroke:#000000;stroke-width:1.0;"/><line style="stroke:#000000;stroke-width:1.0;" x1="516.126" x2="516.126" y1="181.9053" y2="201.9053"/><polygon fill="#000000" points="512.126,191.9053,516.126,201.9053,520.126,191.9053,516.126,195.9053" style="stroke:#000000;stroke-width:1.0;"/><line style="stroke:#000000;stroke-width:1.0;" x1="516.126" x2="516.126" y1="774.0286" y2="802.2366"/><polygon fill="#000000" points="512.126,792.2366,516.126,802.2366,520.126,792.2366,516.126,796.2366" style="stroke:#000000;stroke-width:1.0;"/><line style="stroke:#000000;stroke-width:1.0;" x1="516.126" x2="516.126" y1="714.7603" y2="739.4446"/><polygon fill="#000000" points="512.126,729.4446,516.126,739.4446,520.126,729.4446,516.126,733.4446" style="stroke:#000000;stroke-width:1.0;"/><line style="stroke:#000000;stroke-width:1.0;" x1="637.7554" x2="649.7554" y1="702.7603" y2="702.7603"/><polygon fill="#000000" points="645.7554,772.2366,649.7554,782.2366,653.7554,772.2366,649.7554,776.2366" style="stroke:#000000;stroke-width:1.0;"/><line style="stroke:#000000;stroke-width:1.0;" x1="649.7554" x2="649.7554" y1="702.7603" y2="846.2366"/><line style="stroke:#000000;stroke-width:1.0;" x1="649.7554" x2="516.126" y1="846.2366" y2="846.2366"/><line style="stroke:#000000;stroke-width:1.0;" x1="516.126" x2="516.126" y1="846.2366" y2="866.2366"/><polygon fill="#000000" points="512.126,856.2366,516.126,866.2366,520.126,856.2366,516.126,860.2366" style="stroke:#000000;stroke-width:1.0;"/><line style="stroke:#000000;stroke-width:1.0;" x1="516.126" x2="516.126" y1="670.7603" y2="690.7603"/><polygon fill="#000000" points="512.126,680.7603,516.126,690.7603,520.126,680.7603,516.126,684.7603" style="stroke:#000000;stroke-width:1.0;"/><line style="stroke:#000000;stroke-width:1.0;" x1="516.126" x2="516.126" y1="915.4045" y2="935.4045"/><polygon fill="#000000" points="512.126,925.4045,516.126,935.4045,520.126,925.4045,516.126,929.4045" style="stroke:#000000;stroke-width:1.0;"/><line style="stroke:#000000;stroke-width:1.0;" x1="100.8408" x2="100.8408" y1="1143.8938" y2="1178.4778"/><polygon fill="#000000" points="96.8408,1168.4778,100.8408,1178.4778,104.8408,1168.4778,100.8408,1172.4778" style="stroke:#000000;stroke-width:1.0;"/><line style="stroke:#000000;stroke-width:1.0;" x1="100.8408" x2="100.8408" y1="1213.0618" y2="1233.0618"/><polygon fill="#000000" points="96.8408,1223.0618,100.8408,1233.0618,104.8408,1223.0618,100.8408,1227.0618" style="stroke:#000000;stroke-width:1.0;"/><line style="stroke:#000000;stroke-width:1.0;" x1="356.4121" x2="356.4121" y1="1129.3098" y2="1163.8938"/><polygon fill="#000000" points="352.4121,1153.8938,356.4121,1163.8938,360.4121,1153.8938,356.4121,1157.8938" style="stroke:#000000;stroke-width:1.0;"/><line style="stroke:#000000;stroke-width:1.0;" x1="687.5498" x2="687.5498" y1="1129.3098" y2="1163.8938"/><polygon fill="#000000" points="683.5498,1153.8938,687.5498,1163.8938,691.5498,1153.8938,687.5498,1157.8938" style="stroke:#000000;stroke-width:1.0;"/><line style="stroke:#000000;stroke-width:1.0;" x1="952.1045" x2="952.1045" y1="1129.3098" y2="1163.8938"/><polygon fill="#000000" points="948.1045,1153.8938,952.1045,1163.8938,956.1045,1153.8938,952.1045,1157.8938" style="stroke:#000000;stroke-width:1.0;"/><line style="stroke:#000000;stroke-width:1.0;" x1="438.4375" x2="100.8408" y1="1045.9885" y2="1045.9885"/><line style="stroke:#000000;stroke-width:1.0;" x1="100.8408" x2="100.8408" y1="1045.9885" y2="1094.7258"/><polygon fill="#000000" points="96.8408,1084.7258,100.8408,1094.7258,104.8408,1084.7258,100.8408,1088.7258" style="stroke:#000000;stroke-width:1.0;"/><text fill="#000000" font-family="Verdana" font-size="11" lengthAdjust="spacing" textLength="38.0649" x="100.8408" y="1074.7319">Search</text><line style="stroke:#000000;stroke-width:1.0;" x1="593.8145" x2="952.1045" y1="1045.9885" y2="1045.9885"/><line style="stroke:#000000;stroke-width:1.0;" x1="952.1045" x2="952.1045" y1="1045.9885" y2="1094.7258"/><polygon fill="#000000" points="948.1045,1084.7258,952.1045,1094.7258,956.1045,1084.7258,952.1045,1088.7258" style="stroke:#000000;stroke-width:1.0;"/><text fill="#000000" font-family="Verdana" font-size="11" lengthAdjust="spacing" textLength="35.4868" x="952.1045" y="1074.7319">Delete</text><line style="stroke:#000000;stroke-width:1.0;" x1="356.4121" x2="356.4121" y1="1045.9885" y2="1094.7258"/><polygon fill="#000000" points="352.4121,1084.7258,356.4121,1094.7258,360.4121,1084.7258,356.4121,1088.7258" style="stroke:#000000;stroke-width:1.0;"/><text fill="#000000" font-family="Verdana" font-size="11" lengthAdjust="spacing" textLength="21.2266" x="356.4121" y="1069.7319">Add</text><line style="stroke:#000000;stroke-width:1.0;" x1="687.5498" x2="687.5498" y1="1045.9885" y2="1094.7258"/><polygon fill="#000000" points="683.5498,1084.7258,687.5498,1094.7258,691.5498,1084.7258,687.5498,1088.7258" style="stroke:#000000;stroke-width:1.0;"/><text fill="#000000" font-family="Verdana" font-size="11" lengthAdjust="spacing" textLength="21.1621" x="687.5498" y="1069.7319">Edit</text><line style="stroke:#000000;stroke-width:1.0;" x1="100.8408" x2="100.8408" y1="1282.2297" y2="1324.2297"/><line style="stroke:#000000;stroke-width:1.0;" x1="100.8408" x2="504.126" y1="1324.2297" y2="1324.2297"/><polygon fill="#000000" points="494.126,1320.2297,504.126,1324.2297,494.126,1328.2297,498.126,1324.2297" style="stroke:#000000;stroke-width:1.0;"/><line style="stroke:#000000;stroke-width:1.0;" x1="952.1045" x2="952.1045" y1="1213.0618" y2="1324.2297"/><line style="stroke:#000000;stroke-width:1.0;" x1="952.1045" x2="528.126" y1="1324.2297" y2="1324.2297"/><polygon fill="#000000" points="538.126,1320.2297,528.126,1324.2297,538.126,1328.2297,534.126,1324.2297" style="stroke:#000000;stroke-width:1.0;"/><line style="stroke:#000000;stroke-width:1.0;" x1="356.4121" x2="356.4121" y1="1213.0618" y2="1324.2297"/><polygon fill="#000000" points="352.4121,1314.2297,356.4121,1324.2297,360.4121,1314.2297,356.4121,1318.2297" style="stroke:#000000;stroke-width:1.0;"/><line style="stroke:#000000;stroke-width:1.0;" x1="687.5498" x2="687.5498" y1="1213.0618" y2="1324.2297"/><polygon fill="#000000" points="683.5498,1314.2297,687.5498,1324.2297,691.5498,1314.2297,687.5498,1318.2297" style="stroke:#000000;stroke-width:1.0;"/><line style="stroke:#000000;stroke-width:1.0;" x1="622.3564" x2="572.228" y1="1402.2297" y2="1402.2297"/><line style="stroke:#000000;stroke-width:1.0;" x1="572.228" x2="572.228" y1="1402.2297" y2="1424.2297"/><polygon fill="#000000" points="568.228,1414.2297,572.228,1424.2297,576.228,1414.2297,572.228,1418.2297" style="stroke:#000000;stroke-width:1.0;"/><line style="stroke:#000000;stroke-width:1.0;" x1="759.5254" x2="809.6538" y1="1402.2297" y2="1402.2297"/><line style="stroke:#000000;stroke-width:1.0;" x1="809.6538" x2="809.6538" y1="1402.2297" y2="1424.2297"/><polygon fill="#000000" points="805.6538,1414.2297,809.6538,1424.2297,813.6538,1414.2297,809.6538,1418.2297" style="stroke:#000000;stroke-width:1.0;"/><line style="stroke:#000000;stroke-width:1.0;" x1="572.228" x2="572.228" y1="1458.8137" y2="1476.8137"/><line style="stroke:#000000;stroke-width:1.0;" x1="572.228" x2="678.9409" y1="1476.8137" y2="1476.8137"/><polygon fill="#000000" points="668.9409,1472.8137,678.9409,1476.8137,668.9409,1480.8137,672.9409,1476.8137" style="stroke:#000000;stroke-width:1.0;"/><line style="stroke:#000000;stroke-width:1.0;" x1="809.6538" x2="809.6538" y1="1458.8137" y2="1476.8137"/><line style="stroke:#000000;stroke-width:1.0;" x1="809.6538" x2="702.9409" y1="1476.8137" y2="1476.8137"/><polygon fill="#000000" points="712.9409,1472.8137,702.9409,1476.8137,712.9409,1480.8137,708.9409,1476.8137" style="stroke:#000000;stroke-width:1.0;"/><line style="stroke:#000000;stroke-width:1.0;" x1="447.3025" x2="341.311" y1="1368.2297" y2="1368.2297"/><line style="stroke:#000000;stroke-width:1.0;" x1="341.311" x2="341.311" y1="1368.2297" y2="1390.2297"/><polygon fill="#000000" points="337.311,1380.2297,341.311,1390.2297,345.311,1380.2297,341.311,1384.2297" style="stroke:#000000;stroke-width:1.0;"/><line style="stroke:#000000;stroke-width:1.0;" x1="584.9495" x2="690.9409" y1="1368.2297" y2="1368.2297"/><line style="stroke:#000000;stroke-width:1.0;" x1="690.9409" x2="690.9409" y1="1368.2297" y2="1390.2297"/><polygon fill="#000000" points="686.9409,1380.2297,690.9409,1390.2297,694.9409,1380.2297,690.9409,1384.2297" style="stroke:#000000;stroke-width:1.0;"/><line style="stroke:#000000;stroke-width:1.0;" x1="341.311" x2="341.311" y1="1424.8137" y2="1506.8137"/><line style="stroke:#000000;stroke-width:1.0;" x1="341.311" x2="504.126" y1="1506.8137" y2="1506.8137"/><polygon fill="#000000" points="494.126,1502.8137,504.126,1506.8137,494.126,1510.8137,498.126,1506.8137" style="stroke:#000000;stroke-width:1.0;"/><line style="stroke:#000000;stroke-width:1.0;" x1="690.9409" x2="690.9409" y1="1488.8137" y2="1506.8137"/><line style="stroke:#000000;stroke-width:1.0;" x1="690.9409" x2="528.126" y1="1506.8137" y2="1506.8137"/><polygon fill="#000000" points="538.126,1502.8137,528.126,1506.8137,538.126,1510.8137,534.126,1506.8137" style="stroke:#000000;stroke-width:1.0;"/><line style="stroke:#000000;stroke-width:1.0;" x1="516.126" x2="516.126" y1="1336.2297" y2="1356.2297"/><polygon fill="#000000" points="512.126,1346.2297,516.126,1356.2297,520.126,1346.2297,516.126,1350.2297" style="stroke:#000000;stroke-width:1.0;"/><line style="stroke:#000000;stroke-width:1.0;" x1="516.126" x2="516.126" y1="1013.9885" y2="1033.9885"/><polygon fill="#000000" points="512.126,1023.9885,516.126,1033.9885,520.126,1023.9885,516.126,1027.9885" style="stroke:#000000;stroke-width:1.0;"/><line style="stroke:#000000;stroke-width:1.0;" x1="568.7073" x2="1048.252" y1="1550.8137" y2="1550.8137"/><polygon fill="#000000" points="1044.252,1302.2297,1048.252,1292.2297,1052.252,1302.2297,1048.252,1298.2297" style="stroke:#000000;stroke-width:1.0;"/><line style="stroke:#000000;stroke-width:1.0;" x1="1048.252" x2="1048.252" y1="1001.9885" y2="1550.8137"/><line style="stroke:#000000;stroke-width:1.0;" x1="1048.252" x2="528.126" y1="1001.9885" y2="1001.9885"/><polygon fill="#000000" points="538.126,997.9885,528.126,1001.9885,538.126,1005.9885,534.126,1001.9885" style="stroke:#000000;stroke-width:1.0;"/><line style="stroke:#000000;stroke-width:1.0;" x1="516.126" x2="516.126" y1="1518.8137" y2="1538.8137"/><polygon fill="#000000" points="512.126,1528.8137,516.126,1538.8137,520.126,1528.8137,516.126,1532.8137" style="stroke:#000000;stroke-width:1.0;"/><line style="stroke:#000000;stroke-width:1.0;" x1="516.126" x2="516.126" y1="969.9885" y2="989.9885"/><polygon fill="#000000" points="512.126,979.9885,516.126,989.9885,520.126,979.9885,516.126,983.9885" style="stroke:#000000;stroke-width:1.0;"/><line style="stroke:#000000;stroke-width:1.0;" x1="516.126" x2="516.126" y1="1562.8137" y2="1595.3728"/><polygon fill="#000000" points="512.126,1585.3728,516.126,1595.3728,520.126,1585.3728,516.126,1589.3728" style="stroke:#000000;stroke-width:1.0;"/><line style="stroke:#000000;stroke-width:1.0;" x1="516.126" x2="516.126" y1="1629.9568" y2="1649.9568"/><polygon fill="#000000" points="512.126,1639.9568,516.126,1649.9568,520.126,1639.9568,516.126,1643.9568" style="stroke:#000000;stroke-width:1.0;"/><line style="stroke:#000000;stroke-width:1.0;" x1="516.126" x2="516.126" y1="1684.5408" y2="1743.8384"/><polygon fill="#000000" points="512.126,1733.8384,516.126,1743.8384,520.126,1733.8384,516.126,1737.8384" style="stroke:#000000;stroke-width:1.0;"/><!--SRC=[bLPDRnit4BtpLqnpYGJ8iXCtbpMAmB4TD6ZJ6B4BdvdbICkOIsv9oefGzB_tpN9NaXqvHNNP5J_c3T-yDzoNT15yrdMcZzhh9KSwEYByjGysRyXOlOowLI_feuqnn4IvOOgi7IrSM9Frj8ZOpzuSVqt7UfMR-TT4sfj7utM1I9YRA_KJOhHCdTFMgtHlVQU1GQdH9gojNz92kyHxC-T3EkzqVR-COUNDHN0XqbrZyy5r8HgEPSqxXqq7rbnQtGPl3eTKsMR7O0Jd-pE1a_Suh58fwvYLgZvrxAd9kKlLyUviTUX-FZrz5OK35zpncQgiD_njtkJMaGlQf3Ebx88cuC_SS4es-CaKREPLz22DLe3wODvEXMHFamsdgIAgFhEnaL6X76YB9a7F58CeclWmLLWOkMETyK8aAETES3RKQ2a8QbhZcFbfTFbLxwrpKaifhWjBgMg8xTauVVtfvfP-b_5vrtJ3wDzzkbwtFADEfxG6wVHFsRDBwm10vALD6QH-Z_5vc7e4ix0nvJzw7AV7jnzWUsCNMpPetLXK4fIdBlZ4SnOPaqtaGwONBq07teMC2WA4eYN35hM15QRzcf7TAka77gjMAZKxb9kSULA7S6ynU7f2hVMh3AxF_gkKVTw3FlvQOLdF-6HQIOQILWbAAGkP68YyBQOF5V6t3fiCuNYrOutNxzIpqwDaatBe1WNrOXWoAAMuGOIwkHXpH45eRND3gH-dNy2Tca1Mt7Re4wXPknKoFt3SZCT3WaXV-AAmza935G4azYoXfJGhbsL6RHMSW0MKoLs34fh0XO0-YWblvLorbhnBbaLcrUscOxX8Se4iR7sFFmlBplJJ4mtMZab4WqVN12zFRhLrqwASwaxRJA_Ve6QGXE4ly4lDu-GphAYT5qGGXPvPmIsIB9cU6pEakUy5p-kZaQYT7GeMTWn01t0Ecg8_rAoSQH_xojWyWFUjIsCy8aZTQB_aFf4-txGFBvkUnxV_DuTBTfnvo09niRaTMS0jWwwp3rvM_mY-n8QIYbJ4eSKwJttUUtnqoO1_yyJf_VlvzOT1mcpws3jdZ2qLjmDKARTZyBH6NxMxVfhsf0Y8PqM-wu_Q654WUCR3xF7Jk_OehWexewHwc2TXfuzxtk3WnwtlDsPuDqHSWSjTknkQ6tYdi88wLDKtZUsr19y-rpbKtpWKzgEPssKZXhtgFI-DYrEcPN4ixjLbW_exTzxPEtIFIrn8pdgUo3cVVZjq5fy7CyaQ7A-ZxjAu5PUaz1xiqVJg3GY1PGmOAy7cKllReO3QhVKcRLlHhxUtr_Jwv6HEL-NpfGwm_nVv9A1HVKKflG7Wtr3i88a9dV08r_TIQ0fU61xEEQXCUgOGoUfV]--></g></svg>