<svg xmlns="http://www.w3.org/2000/svg" xmlns:xlink="http://www.w3.org/1999/xlink" contentStyleType="text/css" height="1471px" preserveAspectRatio="none" style="width:1476px;height:1471px;background:#FFFFFF;" version="1.1" viewBox="0 0 1476 1471" width="1476px" zoomAndPan="magnify"><title>Search Contacts</title><defs/><g><text fill="#000000" font-family="Verdana" font-size="22" font-weight="bold" lengthAdjust="spacing" textLength="199.4395" x="641.8738" y="37.1182">Search Contacts</text><rect fill="#FFFFFF" height="1151.772" style="stroke:#999999;stroke-width:1.0;" width="10" x="303.4331" y="161.3359"/><rect fill="#FFFFFF" height="735.3809" style="stroke:#999999;stroke-width:1.0;" width="10" x="597.6191" y="335.3325"/><rect fill="#FFFFFF" height="174.5952" style="stroke:#999999;stroke-width:1.0;" width="10" x="975.8335" y="365.1318"/><rect fill="#FFFFFF" height="174.3945" style="stroke:#999999;stroke-width:1.0;" width="10" x="1428.6846" y="735.3223"/><rect fill="#FFFFFF" height="806.7788" style="stroke:#000000;stroke-width:1.0;" width="1454.187" x="15" y="499.3291"/><rect fill="#FFFFFF" height="758.3809" style="stroke:none;stroke-width:1.0;" width="1454.187" x="15" y="547.7271"/><rect fill="#FFFFFF" height="170.5952" style="stroke:#000000;stroke-width:1.0;" width="522.6274" x="25" y="1128.5127"/><rect fill="#FFFFFF" height="47.5986" style="stroke:none;stroke-width:1.0;" width="522.6274" x="25" y="1176.9106"/><rect fill="#FFFFFF" height="74.5986" style="stroke:none;stroke-width:1.0;" width="522.6274" x="25" y="1224.5093"/><line style="stroke:#999999;stroke-width:1.0;" x1="52" x2="52" y1="129.5366" y2="1390.5059"/><line style="stroke:#999999;stroke-width:1.0;" x1="308.2004" x2="308.2004" y1="129.5366" y2="1390.5059"/><line style="stroke:#999999;stroke-width:1.0;" x1="601.8933" x2="601.8933" y1="129.5366" y2="1390.5059"/><line style="stroke:#999999;stroke-width:1.0;" x1="980.3669" x2="980.3669" y1="129.5366" y2="1390.5059"/><line style="stroke:#999999;stroke-width:1.0;" x1="1246.844" x2="1246.844" y1="129.5366" y2="1390.5059"/><line style="stroke:#999999;stroke-width:1.0;" x1="1433.1821" x2="1433.1821" y1="129.5366" y2="1390.5059"/><text fill="#000000" font-family="Verdana" font-size="13" lengthAdjust="spacing" textLength="29.5801" x="35" y="126.8071">User</text><ellipse cx="52.79" cy="61.7373" fill="#FFFFFF" rx="8" ry="8" style="stroke:#333333;stroke-width:1.0;"/><path d="M52.79,69.7373 L52.79,96.7373 M39.79,77.7373 L65.79,77.7373 M52.79,96.7373 L39.79,111.7373 M52.79,96.7373 L65.79,111.7373 " fill="none" style="stroke:#333333;stroke-width:1.0;"/><text fill="#000000" font-family="Verdana" font-size="13" lengthAdjust="spacing" textLength="29.5801" x="35" y="1402.5757">User</text><ellipse cx="52.79" cy="1414.3052" fill="#FFFFFF" rx="8" ry="8" style="stroke:#333333;stroke-width:1.0;"/><path d="M52.79,1422.3052 L52.79,1449.3052 M39.79,1430.3052 L65.79,1430.3052 M52.79,1449.3052 L39.79,1464.3052 M52.79,1449.3052 L65.79,1464.3052 " fill="none" style="stroke:#333333;stroke-width:1.0;"/><rect fill="#FFFFFF" height="29.7993" rx="2.5" ry="2.5" style="stroke:#333333;stroke-width:1.0;" width="84.4653" x="266.2004" y="98.7373"/><text fill="#000000" font-family="Verdana" font-size="13" lengthAdjust="spacing" textLength="70.4653" x="273.2004" y="118.8071">contacts.js</text><rect fill="#FFFFFF" height="29.7993" rx="2.5" ry="2.5" style="stroke:#333333;stroke-width:1.0;" width="84.4653" x="266.2004" y="1389.5059"/><text fill="#000000" font-family="Verdana" font-size="13" lengthAdjust="spacing" textLength="70.4653" x="273.2004" y="1409.5757">contacts.js</text><rect fill="#FFFFFF" height="29.7993" rx="2.5" ry="2.5" style="stroke:#333333;stroke-width:1.0;" width="49.4517" x="577.8933" y="98.7373"/><text fill="#000000" font-family="Verdana" font-size="13" lengthAdjust="spacing" textLength="35.4517" x="584.8933" y="118.8071">api.js</text><rect fill="#FFFFFF" height="29.7993" rx="2.5" ry="2.5" style="stroke:#333333;stroke-width:1.0;" width="49.4517" x="577.8933" y="1389.5059"/><text fill="#000000" font-family="Verdana" font-size="13" lengthAdjust="spacing" textLength="35.4517" x="584.8933" y="1409.5757">api.js</text><rect fill="#FFFFFF" height="29.7993" rx="2.5" ry="2.5" style="stroke:#333333;stroke-width:1.0;" width="144.9331" x="908.3669" y="98.7373"/><text fill="#000000" font-family="Verdana" font-size="13" lengthAdjust="spacing" textLength="130.9331" x="915.3669" y="118.8071">SearchContacts.php</text><rect fill="#FFFFFF" height="29.7993" rx="2.5" ry="2.5" style="stroke:#333333;stroke-width:1.0;" width="144.9331" x="908.3669" y="1389.5059"/><text fill="#000000" font-family="Verdana" font-size="13" lengthAdjust="spacing" textLength="130.9331" x="915.3669" y="1409.5757">SearchContacts.php</text><rect fill="#FFFFFF" height="29.7993" rx="2.5" ry="2.5" style="stroke:#333333;stroke-width:1.0;" width="59.354" x="1217.844" y="98.7373"/><text fill="#000000" font-family="Verdana" font-size="13" lengthAdjust="spacing" textLength="45.354" x="1224.844" y="118.8071">db.php</text><rect fill="#FFFFFF" height="29.7993" rx="2.5" ry="2.5" style="stroke:#333333;stroke-width:1.0;" width="59.354" x="1217.844" y="1389.5059"/><text fill="#000000" font-family="Verdana" font-size="13" lengthAdjust="spacing" textLength="45.354" x="1224.844" y="1409.5757">db.php</text><text fill="#000000" font-family="Verdana" font-size="13" lengthAdjust="spacing" textLength="45.0049" x="1408.1821" y="126.8071">MySQL</text><path d="M1415.6846,77.7373 C1415.6846,67.7373 1433.6846,67.7373 1433.6846,67.7373 C1433.6846,67.7373 1451.6846,67.7373 1451.6846,77.7373 L1451.6846,103.7373 C1451.6846,113.7373 1433.6846,113.7373 1433.6846,113.7373 C1433.6846,113.7373 1415.6846,113.7373 1415.6846,103.7373 L1415.6846,77.7373 " fill="#FFFFFF" style="stroke:#333333;stroke-width:1.5;"/><path d="M1415.6846,77.7373 C1415.6846,87.7373 1433.6846,87.7373 1433.6846,87.7373 C1433.6846,87.7373 1451.6846,87.7373 1451.6846,77.7373 " fill="none" style="stroke:#333333;stroke-width:1.5;"/><text fill="#000000" font-family="Verdana" font-size="13" lengthAdjust="spacing" textLength="45.0049" x="1408.1821" y="1402.5757">MySQL</text><path d="M1415.6846,1415.3052 C1415.6846,1405.3052 1433.6846,1405.3052 1433.6846,1405.3052 C1433.6846,1405.3052 1451.6846,1405.3052 1451.6846,1415.3052 L1451.6846,1441.3052 C1451.6846,1451.3052 1433.6846,1451.3052 1433.6846,1451.3052 C1433.6846,1451.3052 1415.6846,1451.3052 1415.6846,1441.3052 L1415.6846,1415.3052 " fill="#FFFFFF" style="stroke:#333333;stroke-width:1.5;"/><path d="M1415.6846,1415.3052 C1415.6846,1425.3052 1433.6846,1425.3052 1433.6846,1425.3052 C1433.6846,1425.3052 1451.6846,1425.3052 1451.6846,1415.3052 " fill="none" style="stroke:#333333;stroke-width:1.5;"/><rect fill="#FFFFFF" height="1151.772" style="stroke:#999999;stroke-width:1.0;" width="10" x="303.4331" y="161.3359"/><rect fill="#FFFFFF" height="735.3809" style="stroke:#999999;stroke-width:1.0;" width="10" x="597.6191" y="335.3325"/><rect fill="#FFFFFF" height="174.5952" style="stroke:#999999;stroke-width:1.0;" width="10" x="975.8335" y="365.1318"/><rect fill="#FFFFFF" height="174.3945" style="stroke:#999999;stroke-width:1.0;" width="10" x="1428.6846" y="735.3223"/><polygon fill="#333333" points="291.4331,157.3359,301.4331,161.3359,291.4331,165.3359,295.4331,161.3359" style="stroke:#333333;stroke-width:1.0;"/><line style="stroke:#333333;stroke-width:1.0;" x1="52.79" x2="297.4331" y1="161.3359" y2="161.3359"/><text fill="#000000" font-family="Verdana" font-size="13" lengthAdjust="spacing" textLength="76.1973" x="140.0129" y="156.6064">types "ann"</text><line style="stroke:#333333;stroke-width:1.0;" x1="313.4331" x2="355.4331" y1="191.1353" y2="191.1353"/><line style="stroke:#333333;stroke-width:1.0;" x1="355.4331" x2="355.4331" y1="191.1353" y2="204.1353"/><line style="stroke:#333333;stroke-width:1.0;" x1="314.4331" x2="355.4331" y1="204.1353" y2="204.1353"/><polygon fill="#333333" points="324.4331,200.1353,314.4331,204.1353,324.4331,208.1353,320.4331,204.1353" style="stroke:#333333;stroke-width:1.0;"/><text fill="#000000" font-family="Verdana" font-size="13" lengthAdjust="spacing" textLength="116.1558" x="320.4331" y="186.4058">debounce 250 ms</text><line style="stroke:#333333;stroke-width:1.0;" x1="313.4331" x2="355.4331" y1="233.9346" y2="233.9346"/><line style="stroke:#333333;stroke-width:1.0;" x1="355.4331" x2="355.4331" y1="233.9346" y2="246.9346"/><line style="stroke:#333333;stroke-width:1.0;" x1="314.4331" x2="355.4331" y1="246.9346" y2="246.9346"/><polygon fill="#333333" points="324.4331,242.9346,314.4331,246.9346,324.4331,250.9346,320.4331,246.9346" style="stroke:#333333;stroke-width:1.0;"/><text fill="#000000" font-family="Verdana" font-size="13" lengthAdjust="spacing" textLength="159.9102" x="320.4331" y="229.2051">showLoadingSkeletons()</text><line style="stroke:#333333;stroke-width:1.0;" x1="313.4331" x2="355.4331" y1="276.7339" y2="276.7339"/><line style="stroke:#333333;stroke-width:1.0;" x1="355.4331" x2="355.4331" y1="276.7339" y2="289.7339"/><line style="stroke:#333333;stroke-width:1.0;" x1="314.4331" x2="355.4331" y1="289.7339" y2="289.7339"/><polygon fill="#333333" points="324.4331,285.7339,314.4331,289.7339,324.4331,293.7339,320.4331,289.7339" style="stroke:#333333;stroke-width:1.0;"/><text fill="#000000" font-family="Verdana" font-size="13" lengthAdjust="spacing" textLength="251.3291" x="320.4331" y="272.0044">requestId = ++latestSearchRequestId</text><polygon fill="#333333" points="585.6191,331.3325,595.6191,335.3325,585.6191,339.3325,589.6191,335.3325" style="stroke:#333333;stroke-width:1.0;"/><line style="stroke:#333333;stroke-width:1.0;" x1="313.4331" x2="591.6191" y1="335.3325" y2="335.3325"/><text fill="#000000" font-family="Verdana" font-size="13" lengthAdjust="spacing" textLength="253.1572" x="328.9475" y="314.8037">callApiWithDeadline("SearchContacts",</text><text fill="#000000" font-family="Verdana" font-size="13" lengthAdjust="spacing" textLength="265.186" x="322.9331" y="330.603">{ userId: 7, search: "ann", field: "all" })</text><polygon fill="#333333" points="963.8335,361.1318,973.8335,365.1318,963.8335,369.1318,967.8335,365.1318" style="stroke:#333333;stroke-width:1.0;"/><line style="stroke:#333333;stroke-width:1.0;" x1="607.6191" x2="969.8335" y1="365.1318" y2="365.1318"/><text fill="#000000" font-family="Verdana" font-size="13" lengthAdjust="spacing" textLength="204.4771" x="689.4878" y="360.4023">POST /API/SearchContacts.php</text><polygon fill="#333333" points="1235.521,390.9312,1245.521,394.9312,1235.521,398.9312,1239.521,394.9312" style="stroke:#333333;stroke-width:1.0;"/><line style="stroke:#333333;stroke-width:1.0;" x1="985.8335" x2="1241.521" y1="394.9312" y2="394.9312"/><text fill="#000000" font-family="Verdana" font-size="13" lengthAdjust="spacing" textLength="111.6807" x="1060.8369" y="390.2017">getRequestInfo()</text><polygon fill="#333333" points="996.8335,420.7305,986.8335,424.7305,996.8335,428.7305,992.8335,424.7305" style="stroke:#333333;stroke-width:1.0;"/><line style="stroke:#333333;stroke-width:1.0;stroke-dasharray:2.0,2.0;" x1="990.8335" x2="1246.521" y1="424.7305" y2="424.7305"/><text fill="#000000" font-family="Verdana" font-size="13" lengthAdjust="spacing" textLength="93.7739" x="1069.7903" y="420.001">decoded JSON</text><polygon fill="#333333" points="1235.521,450.5298,1245.521,454.5298,1235.521,458.5298,1239.521,454.5298" style="stroke:#333333;stroke-width:1.0;"/><line style="stroke:#333333;stroke-width:1.0;" x1="985.8335" x2="1241.521" y1="454.5298" y2="454.5298"/><text fill="#000000" font-family="Verdana" font-size="13" lengthAdjust="spacing" textLength="177.8867" x="1027.7339" y="449.8003">getIdField(), getTextField()</text><polygon fill="#333333" points="996.8335,480.3291,986.8335,484.3291,996.8335,488.3291,992.8335,484.3291" style="stroke:#333333;stroke-width:1.0;"/><line style="stroke:#333333;stroke-width:1.0;stroke-dasharray:2.0,2.0;" x1="990.8335" x2="1246.521" y1="484.3291" y2="484.3291"/><text fill="#000000" font-family="Verdana" font-size="13" lengthAdjust="spacing" textLength="89.9336" x="1071.7104" y="479.5996">7, "ann", "all"</text><path d="M15,499.3291 L79.0493,499.3291 L79.0493,507.1284 L69.0493,517.1284 L15,517.1284 L15,499.3291 " fill="#FFFFFF" style="stroke:#000000;stroke-width:1.0;"/><rect fill="none" height="806.7788" style="stroke:#000000;stroke-width:1.0;" width="1454.187" x="15" y="499.3291"/><text fill="#000000" font-family="Verdana" font-size="13" font-weight="bold" lengthAdjust="spacing" textLength="19.0493" x="30" y="513.3989">alt</text><text fill="#000000" font-family="Verdana" font-size="13" font-weight="bold" lengthAdjust="spacing" textLength="239.6113" x="94.0493" y="514.3989">[userId is not a positive integer]</text><polygon fill="#333333" points="618.6191,535.7271,608.6191,539.7271,618.6191,543.7271,614.6191,539.7271" style="stroke:#333333;stroke-width:1.0;"/><line style="stroke:#333333;stroke-width:1.0;stroke-dasharray:2.0,2.0;" x1="612.6191" x2="979.8335" y1="539.7271" y2="539.7271"/><text fill="#000000" font-family="Verdana" font-size="13" lengthAdjust="spacing" textLength="344.2144" x="622.1191" y="534.9976">{ "results": [], "error": "A valid userId is required" }</text><line style="stroke:#999999;stroke-width:2.0;" x1="971.8335" x2="989.8335" y1="530.7271" y2="548.7271"/><line style="stroke:#999999;stroke-width:2.0;" x1="971.8335" x2="989.8335" y1="548.7271" y2="530.7271"/><line style="stroke:#000000;stroke-width:1.0;stroke-dasharray:2.0,2.0;" x1="15" x2="1469.187" y1="548.7271" y2="548.7271"/><text fill="#000000" font-family="Verdana" font-size="13" font-weight="bold" lengthAdjust="spacing" textLength="118.5361" x="20" y="561.7969">[userId is valid]</text><line style="stroke:#333333;stroke-width:1.0;" x1="980.8335" x2="1022.8335" y1="603.125" y2="603.125"/><line style="stroke:#333333;stroke-width:1.0;" x1="1022.8335" x2="1022.8335" y1="603.125" y2="616.125"/><line style="stroke:#333333;stroke-width:1.0;" x1="981.8335" x2="1022.8335" y1="616.125" y2="616.125"/><polygon fill="#333333" points="991.8335,612.125,981.8335,616.125,991.8335,620.125,987.8335,616.125" style="stroke:#333333;stroke-width:1.0;"/><text fill="#000000" font-family="Verdana" font-size="13" lengthAdjust="spacing" textLength="177.8613" x="987.8335" y="582.5962">escape %, _ and backslash</text><text fill="#000000" font-family="Verdana" font-size="13" lengthAdjust="spacing" textLength="131.625" x="1010.9517" y="598.3955">pattern = "%ann%"</text><polygon fill="#333333" points="1235.521,641.9243,1245.521,645.9243,1235.521,649.9243,1239.521,645.9243" style="stroke:#333333;stroke-width:1.0;"/><line style="stroke:#333333;stroke-width:1.0;" x1="980.8335" x2="1241.521" y1="645.9243" y2="645.9243"/><text fill="#000000" font-family="Verdana" font-size="13" lengthAdjust="spacing" textLength="123.6333" x="1052.3606" y="641.1948">getDbConnection()</text><polygon fill="#333333" points="1421.6846,671.7236,1431.6846,675.7236,1421.6846,679.7236,1425.6846,675.7236" style="stroke:#333333;stroke-width:1.0;"/><line style="stroke:#333333;stroke-width:1.0;" x1="1247.521" x2="1427.6846" y1="675.7236" y2="675.7236"/><text fill="#000000" font-family="Verdana" font-size="13" lengthAdjust="spacing" textLength="162.1636" x="1259.521" y="670.9941">mysqli connect, utf8mb4</text><polygon fill="#333333" points="991.8335,701.5229,981.8335,705.5229,991.8335,709.5229,987.8335,705.5229" style="stroke:#333333;stroke-width:1.0;"/><line style="stroke:#333333;stroke-width:1.0;stroke-dasharray:2.0,2.0;" x1="985.8335" x2="1246.521" y1="705.5229" y2="705.5229"/><text fill="#000000" font-family="Verdana" font-size="13" lengthAdjust="spacing" textLength="70.4399" x="1078.9573" y="700.7935">connection</text><polygon fill="#333333" points="1416.6846,731.3223,1426.6846,735.3223,1416.6846,739.3223,1420.6846,735.3223" style="stroke:#333333;stroke-width:1.0;"/><line style="stroke:#333333;stroke-width:1.0;" x1="980.8335" x2="1422.6846" y1="735.3223" y2="735.3223"/><text fill="#000000" font-family="Verdana" font-size="13" lengthAdjust="spacing" textLength="202.9346" x="1103.2917" y="730.5928">prepare + bind_param("issss")</text><path d="M1088,748.3223 L1088,852.3223 L1422,852.3223 L1422,758.3223 L1412,748.3223 L1088,748.3223 " fill="#FFFFFF" style="stroke:#000000;stroke-width:1.0;"/><path d="M1412,748.3223 L1412,758.3223 L1422,758.3223 L1412,748.3223 " fill="#FFFFFF" style="stroke:#000000;stroke-width:1.0;"/><text fill="#000000" font-family="Verdana" font-size="13" lengthAdjust="spacing" textLength="313.9043" x="1094" y="766.3921">SELECT ID, FirstName, LastName, Phone, Email</text><text fill="#000000" font-family="Verdana" font-size="13" lengthAdjust="spacing" textLength="99.0615" x="1103.1406" y="782.1914">FROM Contacts</text><text fill="#000000" font-family="Verdana" font-size="13" lengthAdjust="spacing" textLength="124.6108" x="1098.5703" y="797.9907">WHERE UserID = ?</text><text fill="#000000" font-family="Verdana" font-size="13" lengthAdjust="spacing" textLength="291.1099" x="1107.7109" y="813.79">AND (FirstName LIKE ? OR LastName LIKE ?</text><text fill="#000000" font-family="Verdana" font-size="13" lengthAdjust="spacing" textLength="226.2241" x="1130.5625" y="829.5894">OR Phone LIKE ? OR Email LIKE ?)</text><text fill="#000000" font-family="Verdana" font-size="13" lengthAdjust="spacing" textLength="237.9482" x="1098.5703" y="845.3887">ORDER BY LastName, FirstName, ID</text><polygon fill="#333333" points="1416.6846,875.9175,1426.6846,879.9175,1416.6846,883.9175,1420.6846,879.9175" style="stroke:#333333;stroke-width:1.0;"/><line style="stroke:#333333;stroke-width:1.0;" x1="980.8335" x2="1422.6846" y1="879.9175" y2="879.9175"/><text fill="#000000" font-family="Verdana" font-size="13" lengthAdjust="spacing" textLength="62.8545" x="1173.3318" y="875.188">execute()</text><polygon fill="#333333" points="991.8335,905.7168,981.8335,909.7168,991.8335,913.7168,987.8335,909.7168" style="stroke:#333333;stroke-width:1.0;"/><line style="stroke:#333333;stroke-width:1.0;stroke-dasharray:2.0,2.0;" x1="985.8335" x2="1432.6846" y1="909.7168" y2="909.7168"/><text fill="#000000" font-family="Verdana" font-size="13" lengthAdjust="spacing" textLength="95.8877" x="1159.3152" y="904.9873">matching rows</text><line style="stroke:#333333;stroke-width:1.0;" x1="980.8335" x2="1022.8335" y1="955.3154" y2="955.3154"/><line style="stroke:#333333;stroke-width:1.0;" x1="1022.8335" x2="1022.8335" y1="955.3154" y2="968.3154"/><line style="stroke:#333333;stroke-width:1.0;" x1="981.8335" x2="1022.8335" y1="968.3154" y2="968.3154"/><polygon fill="#333333" points="991.8335,964.3154,981.8335,968.3154,991.8335,972.3154,987.8335,968.3154" style="stroke:#333333;stroke-width:1.0;"/><text fill="#000000" font-family="Verdana" font-size="13" lengthAdjust="spacing" textLength="252.6875" x="987.8335" y="934.7866">rename columns to the contract shape</text><text fill="#000000" font-family="Verdana" font-size="13" lengthAdjust="spacing" textLength="241.2109" x="993.5718" y="950.5859">ID -&gt; id, FirstName -&gt; firstName, ...</text><polygon fill="#333333" points="618.6191,994.1147,608.6191,998.1147,618.6191,1002.1147,614.6191,998.1147" style="stroke:#333333;stroke-width:1.0;"/><line style="stroke:#333333;stroke-width:1.0;stroke-dasharray:2.0,2.0;" x1="612.6191" x2="979.8335" y1="998.1147" y2="998.1147"/><text fill="#000000" font-family="Verdana" font-size="13" lengthAdjust="spacing" textLength="202.8584" x="692.7971" y="993.3853">{ "results": [ ... ], "error": "" }</text><line style="stroke:#333333;stroke-width:1.0;" x1="607.6191" x2="649.6191" y1="1027.9141" y2="1027.9141"/><line style="stroke:#333333;stroke-width:1.0;" x1="649.6191" x2="649.6191" y1="1027.9141" y2="1040.9141"/><line style="stroke:#333333;stroke-width:1.0;" x1="608.6191" x2="649.6191" y1="1040.9141" y2="1040.9141"/><polygon fill="#333333" points="618.6191,1036.9141,608.6191,1040.9141,618.6191,1044.9141,614.6191,1040.9141" style="stroke:#333333;stroke-width:1.0;"/><text fill="#000000" font-family="Verdana" font-size="13" lengthAdjust="spacing" textLength="174.6304" x="614.6191" y="1023.1846">JSON.parse(responseText)</text><polygon fill="#333333" points="324.4331,1066.7134,314.4331,1070.7134,324.4331,1074.7134,320.4331,1070.7134" style="stroke:#333333;stroke-width:1.0;"/><line style="stroke:#333333;stroke-width:1.0;stroke-dasharray:2.0,2.0;" x1="318.4331" x2="601.6191" y1="1070.7134" y2="1070.7134"/><text fill="#000000" font-family="Verdana" font-size="13" lengthAdjust="spacing" textLength="149.6841" x="383.1841" y="1065.9839">onSuccess(jsonObject)</text><line style="stroke:#333333;stroke-width:1.0;" x1="313.4331" x2="355.4331" y1="1100.5127" y2="1100.5127"/><line style="stroke:#333333;stroke-width:1.0;" x1="355.4331" x2="355.4331" y1="1100.5127" y2="1113.5127"/><line style="stroke:#333333;stroke-width:1.0;" x1="314.4331" x2="355.4331" y1="1113.5127" y2="1113.5127"/><polygon fill="#333333" points="324.4331,1109.5127,314.4331,1113.5127,324.4331,1117.5127,320.4331,1113.5127" style="stroke:#333333;stroke-width:1.0;"/><text fill="#000000" font-family="Verdana" font-size="13" lengthAdjust="spacing" textLength="237.2119" x="320.4331" y="1095.7832">drop the answer if requestId is stale</text><path d="M25,1128.5127 L89.0493,1128.5127 L89.0493,1136.312 L79.0493,1146.312 L25,1146.312 L25,1128.5127 " fill="#FFFFFF" style="stroke:#000000;stroke-width:1.0;"/><rect fill="none" height="170.5952" style="stroke:#000000;stroke-width:1.0;" width="522.6274" x="25" y="1128.5127"/><text fill="#000000" font-family="Verdana" font-size="13" font-weight="bold" lengthAdjust="spacing" textLength="19.0493" x="40" y="1142.5825">alt</text><text fill="#000000" font-family="Verdana" font-size="13" font-weight="bold" lengthAdjust="spacing" textLength="187.0654" x="104.0493" y="1143.5825">[response.error is not ""]</text><polygon fill="#333333" points="63.79,1164.9106,53.79,1168.9106,63.79,1172.9106,59.79,1168.9106" style="stroke:#333333;stroke-width:1.0;"/><line style="stroke:#333333;stroke-width:1.0;" x1="57.79" x2="302.4331" y1="1168.9106" y2="1168.9106"/><text fill="#000000" font-family="Verdana" font-size="13" lengthAdjust="spacing" textLength="226.6431" x="64.79" y="1164.1812">showRequestError(response.error)</text><line style="stroke:#000000;stroke-width:1.0;stroke-dasharray:2.0,2.0;" x1="25" x2="547.6274" y1="1177.9106" y2="1177.9106"/><text fill="#000000" font-family="Verdana" font-size="13" font-weight="bold" lengthAdjust="spacing" textLength="131.1807" x="30" y="1190.9805">[results is empty]</text><polygon fill="#333333" points="63.79,1212.5093,53.79,1216.5093,63.79,1220.5093,59.79,1216.5093" style="stroke:#333333;stroke-width:1.0;"/><line style="stroke:#333333;stroke-width:1.0;" x1="57.79" x2="302.4331" y1="1216.5093" y2="1216.5093"/><text fill="#000000" font-family="Verdana" font-size="13" lengthAdjust="spacing" textLength="130.1904" x="113.0164" y="1211.7798">"No contacts found"</text><line style="stroke:#000000;stroke-width:1.0;stroke-dasharray:2.0,2.0;" x1="25" x2="547.6274" y1="1225.5093" y2="1225.5093"/><line style="stroke:#333333;stroke-width:1.0;" x1="313.4331" x2="355.4331" y1="1248.3086" y2="1248.3086"/><line style="stroke:#333333;stroke-width:1.0;" x1="355.4331" x2="355.4331" y1="1248.3086" y2="1261.3086"/><line style="stroke:#333333;stroke-width:1.0;" x1="314.4331" x2="355.4331" y1="1261.3086" y2="1261.3086"/><polygon fill="#333333" points="324.4331,1257.3086,314.4331,1261.3086,324.4331,1265.3086,320.4331,1261.3086" style="stroke:#333333;stroke-width:1.0;"/><text fill="#000000" font-family="Verdana" font-size="13" lengthAdjust="spacing" textLength="205.1943" x="320.4331" y="1243.5791">sortResults(), renderContacts()</text><polygon fill="#333333" points="63.79,1287.1079,53.79,1291.1079,63.79,1295.1079,59.79,1291.1079" style="stroke:#333333;stroke-width:1.0;"/><line style="stroke:#333333;stroke-width:1.0;" x1="57.79" x2="302.4331" y1="1291.1079" y2="1291.1079"/><text fill="#000000" font-family="Verdana" font-size="13" lengthAdjust="spacing" textLength="207.1304" x="74.5464" y="1286.3784">contact cards, "n of N contacts"</text><path d="M33,1318.1079 L33,1375.1079 L1452,1375.1079 L1452,1328.1079 L1442,1318.1079 L33,1318.1079 " fill="#FFFFFF" style="stroke:#000000;stroke-width:1.0;"/><path d="M1442,1318.1079 L1442,1328.1079 L1452,1328.1079 L1442,1318.1079 " fill="#FFFFFF" style="stroke:#000000;stroke-width:1.0;"/><text fill="#000000" font-family="Verdana" font-size="13" lengthAdjust="spacing" textLength="501.5093" x="487.1897" y="1336.1777">The WHERE clause always starts with UserID = ?, so a search only sees that</text><text fill="#000000" font-family="Verdana" font-size="13" lengthAdjust="spacing" textLength="501.8076" x="487.1897" y="1351.9771">user's contacts. The query is a prepared statement, so input like  ' OR '1'='1</text><text fill="#000000" font-family="Verdana" font-size="13" lengthAdjust="spacing" textLength="116.2319" x="487.1897" y="1367.7764">is treated as text.</text><!--SRC=[XLPjRzis4FwkNt7JKDX67MTTDsmBq1LExA3kd9V5wOfX7GfQFCTCQ58bwQPUiV- -XvHaoqsx2aXWyTuVtZsd3frO4qGHw4mOSSEE3Wx8yxircu99Ad7Zn8eMrf4r385mnJBhqBKJ1KjQEBkA_qnW8mzl_M5HEVE3Mqy7l-w9HAbm2bkAak7bv72Ml9qq9kMoR2HothoTRMQ_JxFicx3a5LEfXJ9Pvk-KAKLCJF92h7KuXOzp0OK_s4dKyNcDcVg7wSdJbj0lXRJtojpGGcZFRKaDmHbx3rY6MjqOAXZLk9RMfN115QeK9XoBukx6sRMH9rO3hjTB5VWBgjP9TfNQjq_Jqr8S5i6w_rSPYI3cmlDN73bdxxyadDNrJTK2VsRVrI_foRAWWcQghgdf4vzb8cP8-IlFBYVXwTLiV9MLk_eeRxL1qdWvsvTNlP149yFfT5_ui2sIukMBotszgacIR7ISoHeJobFBfEFKEZ6xs4alPtH4OLEoHtnZybY6UYy2n-moI1iToNDS8xh_-n-_evLlY_pIta-jaEYOsHrh3jRuRg-juIAkFamaFQF7ZpNS-r0LTDL8cc2nSbWKGkjXgLwhi1ona1gNqVq4Wxp_ndoaDV2Uo2FwgL_FuL5LI9yMYhMCRrhdz6zlLra2Dqk141088jxbnUoQ3Zy_VplBY7OM3M0tEeRP3OUc0hEmA1gd1rkdaWihGGWlPnVd3-mcyZGcsEtruzirVmZr-xuFr5NNamf1d-bG5qtAax6119NMAwJ8f32AeAiiesH-i0Fq8-MEFMRUvqVqrzzmnvW4XvTyIE-5LhBbDTwNSYo16pn9bEVifggUmGWjpMIv3TSapRuG9TEZFhqbOIJDGGDU2xzyWq4BO0k3HiWVeQv7USkuWMOq1_o6WRerm8EY068qBkIhZN-d5HMLHf_MOV7pQlv3hRLDeTXwQ0MeF9IECJ9CZsckZ7oRHh-RAuydZz6srnqdXIB4J9eNWUoYFYAQZQVZaskQZFfqgfnFFDkdgMX-NIwn6VeqNWcbam7HwTN5sOulqj7h5-EhCKNAc8o0oFDQauRd8-fk_T9qyjkOdjF5rJP0VTJefmVY5BMbdiBNxxsirXfXye__RENQAc0oWXPMKohwKzpu0nVhmEb6uiaEx9K8nJ8k372hJnspX-6dxU7On1eAgzShuobOmYABDnPStBdOFoM_CO045ags4apRSvVjO33uQgT79TfhzwQfzwUQg264saqSsW5wmtCNxafm6iSXxMqr6tApPhOk2cp4xgstvc9-YxRhxKUe68UepQVEbgbiOVmzFZ3KeiMI62mVXEPe4-UzIM2GYcZcFi_JbLPE4w5NN5mpqZZgTlTDOrvfWck4eYjUbM7pq5D-RgdPMFZKmGhFQ-EMRiN_re45ax_8PhZTj3GhqsxleUlQBKZUIO-hCN6ophVHyge7mJNnNml6k9BID8h2MHyRxHe0LaDKQ05M0bhtOfFGSqZx7kkZDLvO4HPiMUq9t9lUu3SsNrYA06UHrJf-cyOWUGUKRXDX4WrloEWzuCFBXEGG7m_hG5hTCL4dJbtdIUTPvmaSmYeuXgwCUpUWUmRPThZ-0m00]--></g></svg>